<svg id="hma-logo" xmlns="http://www.w3.org/2000/svg" viewBox="0 0 99 18">
  <path fill="#FFF" d="M7.41 17v-6.69H3.64V17H0V1h3.64v6.06h3.77V1h3.64v16H7.41"></path>
  <path fill="#FFF" d="M13.47 1h3.68v16h-3.68z"></path>
  <path fill="#FFF" d="M30.85 9a12.5 12.5 0 0 1-.4 3.28 6.91 6.91 0 0 1-1.22 2.51 5.44 5.44 0 0 1-2.09 1.6 7.34 7.34 0 0 1-3 .56h-4.56V1h4.55a7.37 7.37 0 0 1 3 .56 5.41 5.41 0 0 1 2.09 1.62 7 7 0 0 1 1.22 2.53A12.82 12.82 0 0 1 30.85 9m-3.68 0a6.52 6.52 0 0 0-.84-3.65 2.51 2.51 0 0 0-2.16-1.23h-.89v9.67h.89a2.52 2.52 0 0 0 2.16-1.23A6.33 6.33 0 0 0 27.17 9"></path>
  <path fill="#FFF" d="M32.62 17V1h7.82v3.19h-4.32v3.14h3.98v2.98h-3.98v3.44h4.59V17h-8.09"></path>
  <path fill="#FECB2F" d="M50.62 14.28l.08-6.56h-.05l-1.62 6.56H47.5l-1.56-6.56h-.04l.07 6.56H44V4.72h2.74l1.55 6.16h.05l1.51-6.16h2.9v9.56h-2.13"></path>
  <path fill="#FECB2F" d="M57.56 10.84v3.44h-2.13v-3.44L53 4.72h2.35l1.15 3.96h.03l1.16-3.96H60l-2.44 6.12"></path>
  <path fill="#FFF" d="M69 17l-.66-2.92h-3.68L64 17h-3.66l3.93-16h4.6l3.91 16zM66.54 4.48h-.09l-1.37 6.8h2.77z"></path>
  <path fill="#FFF" d="M81.27 4.78a2.89 2.89 0 0 0-1-.74 2.62 2.62 0 0 0-1.14-.26 1.74 1.74 0 0 0-1.11.39 1.53 1.53 0 0 0-.49 1.28 1.45 1.45 0 0 0 .5 1.18 8.1 8.1 0 0 0 1.49.93q.55.27 1.16.65a5.27 5.27 0 0 1 1.12.92 4.68 4.68 0 0 1 .84 1.31 4.51 4.51 0 0 1 .36 1.81 5.9 5.9 0 0 1-.41 2.29 4.62 4.62 0 0 1-1.12 1.64 4.71 4.71 0 0 1-1.62 1 5.57 5.57 0 0 1-1.9.33 6.34 6.34 0 0 1-2.66-.51 6.57 6.57 0 0 1-1.93-1.27L75.24 13a4.17 4.17 0 0 0 1.21.88 3.18 3.18 0 0 0 1.4.33 1.53 1.53 0 0 0 1.58-1.64 1.57 1.57 0 0 0-.55-1.26 8.11 8.11 0 0 0-1.6-1A10.66 10.66 0 0 1 76 9.55a4.67 4.67 0 0 1-1-.93 4.15 4.15 0 0 1-.7-1.28 5.32 5.32 0 0 1-.3-1.73 5.49 5.49 0 0 1 .45-2.31 4.56 4.56 0 0 1 1.17-1.58A4.82 4.82 0 0 1 77.26.8 5.56 5.56 0 0 1 79 .5a6.23 6.23 0 0 1 2.38.43 5 5 0 0 1 1.76 1.18z"></path>
  <path fill="#FFF" d="M91.36 4.78a2.89 2.89 0 0 0-1-.74 2.62 2.62 0 0 0-1.14-.26 1.74 1.74 0 0 0-1.11.39 1.53 1.53 0 0 0-.49 1.28 1.45 1.45 0 0 0 .5 1.18 8.1 8.1 0 0 0 1.49.93q.55.27 1.16.65a5.27 5.27 0 0 1 1.12.92 4.68 4.68 0 0 1 .84 1.31 4.51 4.51 0 0 1 .33 1.82 5.9 5.9 0 0 1-.41 2.29 4.62 4.62 0 0 1-1.12 1.64 4.71 4.71 0 0 1-1.62 1 5.57 5.57 0 0 1-1.9.33 6.34 6.34 0 0 1-2.63-.52 6.57 6.57 0 0 1-1.93-1.27L85.33 13a4.17 4.17 0 0 0 1.21.88 3.18 3.18 0 0 0 1.4.33 1.53 1.53 0 0 0 1.58-1.64 1.58 1.58 0 0 0-.52-1.33 8.11 8.11 0 0 0-1.6-1 10.54 10.54 0 0 1-1.25-.71 4.67 4.67 0 0 1-1-.93 4.15 4.15 0 0 1-.7-1.28 5.32 5.32 0 0 1-.25-1.73 5.49 5.49 0 0 1 .45-2.31 4.56 4.56 0 0 1 1.17-1.58 4.82 4.82 0 0 1 1.53-.9 5.56 5.56 0 0 1 1.77-.3 6.22 6.22 0 0 1 2.38.43 5 5 0 0 1 1.76 1.18z"></path>
  <path fill="#FFF" d="M99 15.21a2.07 2.07 0 0 1-.54 1.45 1.81 1.81 0 0 1-1.41.59 1.78 1.78 0 0 1-1.38-.59 2.07 2.07 0 0 1-.54-1.45 2.12 2.12 0 0 1 .54-1.45 1.75 1.75 0 0 1 1.38-.61 1.78 1.78 0 0 1 1.41.61 2.12 2.12 0 0 1 .54 1.45M95.29 1h3.55v10.58h-3.55z"></path>
</svg>
